<svg width="69" height="69" viewBox="0 0 69 69" fill="none" xmlns="http://www.w3.org/2000/svg">
<rect x="1" y="1" width="65.8" height="65.8" rx="15" fill="black"/>
<path d="M34 14C45.268 14 54 22.2543 54 33.4007C54 44.5471 45.266 52.8014 34 52.8014C32.0444 52.8039 30.0973 52.5456 28.21 52.0334C27.8556 51.9359 27.4785 51.9635 27.142 52.1114L23.172 53.8635C22.9323 53.9694 22.6702 54.0148 22.4087 53.9958C22.1473 53.9767 21.8946 53.8937 21.6728 53.754C21.451 53.6144 21.2669 53.4223 21.1367 53.1949C21.0064 52.9674 20.9341 52.7114 20.926 52.4494L20.818 48.8893C20.8102 48.6727 20.7585 48.46 20.666 48.264C20.5735 48.0681 20.4422 47.8929 20.28 47.7492C16.39 44.2691 14 39.2329 14 33.4007C14 22.2543 22.732 14 34 14ZM21.99 39.0749C21.426 39.9689 22.526 40.977 23.368 40.337L29.678 35.5488C29.8863 35.3916 30.1401 35.3065 30.401 35.3065C30.6619 35.3065 30.9157 35.3916 31.124 35.5488L35.796 39.0489C36.1276 39.298 36.5072 39.4755 36.9109 39.5705C37.3146 39.6654 37.7336 39.6756 38.1414 39.6004C38.5492 39.5252 38.937 39.3663 39.2803 39.1337C39.6236 38.9011 39.915 38.5998 40.136 38.2489L46.01 28.9285C46.574 28.0325 45.474 27.0245 44.632 27.6625L38.322 32.4547C38.1137 32.6119 37.8599 32.6969 37.599 32.6969C37.3381 32.6969 37.0843 32.6119 36.876 32.4547L32.202 28.9545C31.8705 28.7058 31.491 28.5285 31.0875 28.4338C30.684 28.3391 30.2653 28.329 29.8577 28.4041C29.4502 28.4793 29.0626 28.6381 28.7194 28.8705C28.3763 29.103 28.085 29.404 27.864 29.7546L21.99 39.0749Z" fill="white"/>
</svg>
